<svg width="43" height="36" viewBox="0 0 43 36" fill="none" xmlns="http://www.w3.org/2000/svg">
<rect width="43" height="36" rx="10" fill="#15C7FF"/>
<path d="M17.7476 30.1395H23.6297" stroke="#FFFEFE" stroke-width="3.07318" stroke-linecap="round" stroke-linejoin="round"/>
<path fill-rule="evenodd" clip-rule="evenodd" d="M20.6887 10.1942C24.3433 10.1942 27.306 13.1708 27.306 16.8426C27.306 19.4523 25.8094 21.7108 23.6315 22.7991L23.6297 24.2298C23.6297 25.8617 22.313 27.1846 20.6887 27.1846C19.0644 27.1846 17.7476 25.8617 17.7476 24.2298L17.7473 22.7998C15.5686 21.7119 14.0714 19.4529 14.0714 16.8426C14.0714 13.1708 17.034 10.1942 20.6887 10.1942Z" stroke="#FFFEFE" stroke-width="3.07318" stroke-linecap="round" stroke-linejoin="round"/>
<path d="M20.6887 6.50068V5.02325" stroke="#FFFEFE" stroke-width="3.07318" stroke-linecap="round" stroke-linejoin="round"/>
<path d="M28.0413 9.45552L29.5118 7.97809" stroke="#FFFEFE" stroke-width="3.07318" stroke-linecap="round" stroke-linejoin="round"/>
<path d="M13.3361 9.45552L11.8656 7.97809" stroke="#FFFEFE" stroke-width="3.07318" stroke-linecap="round" stroke-linejoin="round"/>
<path d="M28.0413 22.7524L29.5118 24.2298" stroke="#FFFEFE" stroke-width="3.07318" stroke-linecap="round" stroke-linejoin="round"/>
<path d="M13.3361 22.7524L11.8656 24.2298" stroke="#FFFEFE" stroke-width="3.07318" stroke-linecap="round" stroke-linejoin="round"/>
<path d="M10.395 15.3653H8.92453" stroke="#FFFEFE" stroke-width="3.07318" stroke-linecap="round" stroke-linejoin="round"/>
<path d="M32.4528 15.3653H30.9823" stroke="#FFFEFE" stroke-width="3.07318" stroke-linecap="round" stroke-linejoin="round"/>
</svg>
