<svg width="43" height="36" viewBox="0 0 43 36" fill="none" xmlns="http://www.w3.org/2000/svg">
<rect width="43" height="36" rx="10" fill="#CF8619"/>
<path d="M20.9555 8.12756H14.0632C12.3715 8.12756 11 9.49632 11 11.1848V24.9428C11 26.6312 12.3715 28 14.0632 28H29.3794C31.0712 28 32.4426 26.6312 32.4426 24.9428V18.0635" stroke="white" stroke-width="3.27439" stroke-linecap="round" stroke-linejoin="round"/>
<path fill-rule="evenodd" clip-rule="evenodd" d="M32.4427 6.54784C33.2926 7.42435 33.2811 8.81917 32.4169 9.68166L21.7213 20.3562L17.1265 21.8848L18.6581 17.299L29.3602 6.52902C30.1993 5.68458 31.5654 5.67892 32.4115 6.51639C32.422 6.52676 32.4324 6.53725 32.4427 6.54784Z" stroke="white" stroke-width="3.27439" stroke-linecap="round" stroke-linejoin="round"/>
<path d="M29.3794 9.65613L30.839 11.1847" stroke="white" stroke-width="3.27439" stroke-linecap="round" stroke-linejoin="round"/>
</svg>
