<svg width="43" height="36" viewBox="0 0 43 36" fill="none" xmlns="http://www.w3.org/2000/svg">
<rect width="43" height="36" rx="10" fill="#FF1515"/>
<path fill-rule="evenodd" clip-rule="evenodd" d="M17.7476 30.1395H23.6297H17.7476Z" fill="#FF1515"/>
<path d="M17.7476 30.1395H23.6297" stroke="#FFFEFE" stroke-width="3.07318" stroke-linecap="round" stroke-linejoin="round"/>
<path fill-rule="evenodd" clip-rule="evenodd" d="M20.6887 10.1942C24.3433 10.1942 27.306 13.1708 27.306 16.8427C27.306 19.4524 25.8094 21.7109 23.6315 22.7991L23.6297 24.2298C23.6297 25.8617 22.313 27.1847 20.6887 27.1847C19.0644 27.1847 17.7476 25.8617 17.7476 24.2298L17.7473 22.7999C15.5686 21.7119 14.0714 19.453 14.0714 16.8427C14.0714 13.1708 17.034 10.1942 20.6887 10.1942Z" fill="#FF1515" stroke="#FFFEFE" stroke-width="3.07318" stroke-linecap="round" stroke-linejoin="round"/>
<path fill-rule="evenodd" clip-rule="evenodd" d="M20.6887 6.50068V5.02325V6.50068Z" fill="#FF1515"/>
<path d="M20.6887 6.50068V5.02325" stroke="#FFFEFE" stroke-width="3.07318" stroke-linecap="round" stroke-linejoin="round"/>
<path fill-rule="evenodd" clip-rule="evenodd" d="M28.0413 9.45555L29.5118 7.97812L28.0413 9.45555Z" fill="#FF1515"/>
<path d="M28.0413 9.45555L29.5118 7.97812" stroke="#FFFEFE" stroke-width="3.07318" stroke-linecap="round" stroke-linejoin="round"/>
<path fill-rule="evenodd" clip-rule="evenodd" d="M13.3361 9.45555L11.8656 7.97812L13.3361 9.45555Z" fill="#FF1515"/>
<path d="M13.3361 9.45555L11.8656 7.97812" stroke="#FFFEFE" stroke-width="3.07318" stroke-linecap="round" stroke-linejoin="round"/>
<path fill-rule="evenodd" clip-rule="evenodd" d="M28.0413 22.7524L29.5118 24.2298L28.0413 22.7524Z" fill="#FF1515"/>
<path d="M28.0413 22.7524L29.5118 24.2298" stroke="#FFFEFE" stroke-width="3.07318" stroke-linecap="round" stroke-linejoin="round"/>
<path fill-rule="evenodd" clip-rule="evenodd" d="M13.3361 22.7524L11.8656 24.2298L13.3361 22.7524Z" fill="#FF1515"/>
<path d="M13.3361 22.7524L11.8656 24.2298" stroke="#FFFEFE" stroke-width="3.07318" stroke-linecap="round" stroke-linejoin="round"/>
<path fill-rule="evenodd" clip-rule="evenodd" d="M10.395 15.3653H8.92453H10.395Z" fill="#FF1515"/>
<path d="M10.395 15.3653H8.92453" stroke="#FFFEFE" stroke-width="3.07318" stroke-linecap="round" stroke-linejoin="round"/>
<path fill-rule="evenodd" clip-rule="evenodd" d="M32.4528 15.3653H30.9823H32.4528Z" fill="#FF1515"/>
<path d="M32.4528 15.3653H30.9823" stroke="#FFFEFE" stroke-width="3.07318" stroke-linecap="round" stroke-linejoin="round"/>
</svg>
